<?xml version="1.0" standalone="no"?>
<!DOCTYPE svg PUBLIC "-//W3C//DTD SVG 20010904//EN"
 "http://www.w3.org/TR/2001/REC-SVG-20010904/DTD/svg10.dtd">
<svg version="1.0" xmlns="http://www.w3.org/2000/svg"
 width="1024.000000pt" height="1024.000000pt" viewBox="0 0 1024.000000 1024.000000"
 preserveAspectRatio="xMidYMid meet">
<metadata>
Created by potrace 1.14, written by Peter Selinger 2001-2017
</metadata>
<g transform="translate(0.000000,1024.000000) scale(0.100000,-0.100000)"
fill="#000000" stroke="none">
<path d="M5030 10083 c0 -4 -44 -8 -98 -9 -132 -1 -378 -20 -507 -40 -16 -2
-43 -6 -60 -8 -29 -4 -71 -11 -130 -21 -16 -3 -41 -8 -55 -10 -59 -9 -194 -39
-305 -67 -66 -17 -128 -31 -137 -31 -10 -1 -18 -5 -18 -9 0 -4 -9 -8 -20 -8
-10 0 -29 -4 -42 -9 -13 -5 -54 -19 -93 -31 -38 -12 -76 -23 -83 -25 -7 -3
-14 -4 -17 -5 -3 0 -19 -7 -35 -15 -17 -9 -30 -13 -30 -9 0 4 -6 2 -12 -3 -7
-6 -42 -20 -78 -33 -36 -12 -69 -25 -75 -30 -5 -4 -28 -13 -50 -20 -22 -7 -50
-19 -62 -27 -12 -8 -23 -14 -25 -12 -10 7 -432 -206 -468 -237 -8 -7 -17 -12
-20 -12 -8 1 -96 -53 -227 -139 -69 -46 -129 -83 -134 -83 -5 0 -9 -4 -9 -8 0
-5 -15 -17 -34 -27 -19 -11 -33 -23 -30 -27 3 -4 -2 -8 -10 -8 -9 0 -16 -4
-16 -10 0 -5 -6 -10 -14 -10 -8 0 -16 -3 -18 -8 -1 -4 -34 -32 -73 -62 -38
-30 -75 -59 -81 -65 -6 -5 -30 -26 -54 -45 -112 -91 -371 -344 -490 -479 -36
-41 -70 -79 -75 -85 -11 -11 -131 -162 -161 -201 -8 -11 -35 -46 -59 -78 -64
-85 -195 -283 -195 -296 0 -6 -4 -11 -9 -11 -5 0 -19 -20 -31 -45 -12 -25 -26
-45 -31 -45 -6 0 -8 -4 -5 -9 4 -5 3 -11 -1 -13 -8 -3 -14 -15 -72 -123 -14
-27 -28 -52 -31 -55 -12 -12 -90 -173 -90 -186 0 -8 -4 -14 -9 -14 -5 0 -11
-10 -15 -22 -3 -13 -4 -23 -3 -23 1 0 -9 -17 -21 -37 -13 -21 -20 -38 -15 -38
4 0 3 -4 -2 -8 -6 -4 -23 -38 -39 -77 -36 -87 -116 -295 -121 -315 -2 -8 -17
-54 -34 -102 -16 -49 -28 -88 -26 -88 2 0 -2 -15 -10 -34 -8 -18 -16 -44 -19
-57 -3 -13 -12 -48 -20 -77 -8 -29 -15 -55 -15 -57 -1 -3 -1 -6 -2 -7 -7 -23
-21 -93 -22 -105 0 -7 -3 -13 -6 -13 -3 0 -7 -12 -8 -27 0 -16 -10 -71 -21
-123 -20 -94 -30 -152 -37 -220 -2 -19 -6 -44 -9 -55 -3 -11 -8 -54 -12 -95
-3 -41 -8 -77 -9 -80 -10 -16 -19 -267 -19 -495 0 -244 6 -406 19 -500 3 -22
7 -60 9 -85 2 -25 7 -61 10 -80 3 -19 8 -51 11 -70 2 -19 7 -48 10 -65 3 -16
7 -46 9 -65 3 -19 5 -35 6 -35 2 0 8 -31 14 -70 3 -16 8 -43 12 -60 3 -16 7
-34 8 -40 1 -5 4 -14 7 -20 4 -5 5 -18 4 -27 -2 -10 1 -18 6 -18 5 0 8 -3 7
-7 -2 -7 12 -89 17 -103 1 -3 4 -12 7 -20 3 -8 12 -37 18 -65 30 -121 136
-431 180 -530 8 -17 30 -71 35 -85 5 -15 40 -92 63 -140 15 -30 25 -57 24 -59
-2 -2 0 -7 5 -10 4 -3 29 -49 55 -101 27 -52 64 -122 83 -155 19 -33 38 -67
42 -75 33 -68 247 -390 333 -500 175 -225 234 -293 401 -466 95 -98 312 -302
364 -342 21 -16 120 -98 133 -110 7 -6 34 -26 60 -44 52 -36 76 -55 104 -80
10 -10 18 -15 18 -10 0 4 4 3 8 -3 4 -5 14 -14 23 -20 9 -5 52 -34 95 -64 100
-68 201 -131 304 -188 14 -8 45 -26 70 -40 52 -29 294 -151 360 -181 74 -33
294 -124 307 -126 7 -1 16 -5 19 -9 4 -4 16 -7 26 -7 10 0 26 -4 36 -9 16 -9
57 -24 57 -21 0 1 14 -4 30 -10 120 -47 447 -132 625 -164 14 -2 36 -7 50 -10
14 -3 43 -8 65 -11 22 -3 72 -10 110 -16 180 -27 348 -41 497 -43 54 0 98 -5
98 -9 0 -4 9 -3 19 3 14 7 22 7 26 0 5 -8 11 -8 20 0 7 6 16 7 19 2 5 -9 59
-8 75 2 5 4 12 2 16 -4 4 -6 12 -7 18 -3 7 4 50 8 97 9 83 2 229 11 300 19
125 14 221 26 250 31 14 2 41 7 60 10 19 2 58 9 85 14 28 5 61 12 75 14 43 7
211 46 295 68 44 11 85 21 90 23 6 1 17 5 25 8 8 4 26 9 40 11 14 3 25 5 25 6
0 1 7 3 15 5 23 6 113 36 135 45 11 5 63 23 115 40 52 18 107 39 123 47 15 7
27 11 27 8 0 -3 17 4 37 15 21 11 41 20 46 20 15 0 486 227 497 239 3 3 21 14
40 25 112 60 228 132 352 218 54 38 102 68 107 68 5 0 11 4 13 8 2 4 41 37 88
72 76 58 199 159 300 245 60 52 373 367 431 435 151 177 289 359 398 525 74
113 87 134 97 155 4 8 19 33 33 55 41 64 221 409 227 435 0 3 10 25 21 50 29
62 56 124 57 130 2 8 67 183 77 205 9 19 55 154 57 165 0 3 3 12 6 20 11 32
68 236 73 260 2 14 10 50 18 80 8 30 16 66 19 80 3 14 7 34 9 45 8 35 20 100
22 115 2 8 5 30 9 48 12 61 24 143 30 207 12 107 17 152 21 171 26 126 26 791
0 1019 -2 17 -6 55 -9 86 -3 31 -7 69 -10 85 -2 16 -7 49 -10 74 -3 25 -8 56
-11 70 -3 14 -8 39 -10 55 -5 39 -15 93 -22 125 -3 14 -7 39 -10 55 -2 17 -7
37 -10 45 -3 8 -8 24 -9 35 -2 11 -7 31 -10 45 -4 14 -8 32 -10 40 -1 8 -4 24
-7 35 -39 153 -57 218 -66 240 -5 11 -19 54 -32 95 -23 75 -92 267 -109 305
-5 11 -29 67 -54 125 -59 140 -101 227 -117 247 -8 9 -13 19 -13 22 1 3 -8 24
-19 46 -12 22 -21 43 -22 47 0 3 -4 10 -8 15 -5 4 -15 22 -23 38 -7 17 -18 37
-24 45 -5 8 -33 56 -62 105 -29 50 -56 95 -60 100 -5 6 -36 53 -69 105 -34 52
-65 97 -70 98 -5 2 -9 8 -9 14 0 6 -10 23 -22 38 -13 15 -30 37 -38 50 -8 12
-19 28 -25 34 -5 6 -29 36 -52 66 -23 30 -53 67 -65 82 -13 14 -39 46 -58 69
-122 149 -370 397 -574 571 -94 81 -273 218 -285 218 -5 0 -11 4 -13 9 -1 4
-55 43 -118 84 -63 42 -119 80 -125 84 -5 5 -21 14 -35 21 -14 7 -58 32 -98
57 -41 25 -78 45 -83 45 -5 0 -9 5 -9 11 0 5 -4 7 -10 4 -5 -3 -10 -1 -10 6 0
7 -3 9 -6 6 -4 -4 -19 2 -33 12 -57 39 -531 258 -531 245 0 -3 -10 1 -22 8
-13 7 -25 13 -28 14 -3 0 -14 4 -25 8 -11 4 -33 12 -50 18 -16 5 -39 14 -50
18 -11 4 -40 14 -65 21 -25 7 -49 16 -55 20 -5 4 -12 7 -15 7 -3 0 -25 5 -50
12 -25 7 -49 13 -55 15 -5 1 -17 5 -25 8 -24 11 -330 84 -400 97 -102 18 -105
18 -105 20 0 2 -35 9 -89 15 -27 4 -58 9 -70 11 -12 3 -39 6 -61 8 -22 3 -62
8 -90 11 -27 4 -70 9 -95 10 -25 2 -79 6 -120 10 -41 3 -120 7 -176 9 -55 2
-105 6 -111 9 -6 4 -13 4 -17 0 -9 -9 -56 -10 -56 -1 0 4 -11 3 -24 -2 -15 -5
-27 -5 -34 2 -6 6 -12 6 -16 -1 -5 -8 -13 -8 -27 -1 -10 6 -19 7 -19 3z m380
-907 c142 -10 259 -22 310 -32 26 -5 50 -9 110 -18 37 -5 47 -7 170 -32 122
-25 333 -83 470 -131 86 -30 270 -101 285 -111 5 -4 12 -7 15 -7 3 -1 21 -8
40 -17 91 -40 136 -63 142 -72 4 -6 8 -8 8 -4 0 4 21 -4 48 -19 26 -14 54 -30
62 -34 8 -4 54 -30 101 -58 48 -28 91 -51 97 -51 6 0 12 -4 14 -8 2 -5 35 -29
73 -53 39 -24 72 -47 73 -51 2 -4 10 -8 18 -8 8 0 14 -4 14 -8 0 -5 10 -14 23
-20 44 -21 286 -217 405 -327 97 -91 314 -315 305 -315 -4 0 3 -8 13 -17 16
-15 113 -132 146 -178 4 -5 18 -23 31 -40 13 -16 52 -73 88 -125 35 -52 67
-96 72 -98 4 -2 7 -7 7 -12 0 -5 22 -44 48 -87 27 -43 68 -114 92 -158 23 -44
47 -85 51 -91 5 -6 7 -13 4 -16 -3 -3 1 -11 10 -18 8 -7 15 -17 15 -22 0 -6
15 -43 34 -82 53 -110 86 -186 86 -196 0 -6 4 -18 9 -28 13 -24 46 -114 72
-197 12 -38 26 -79 30 -90 8 -20 20 -60 26 -82 2 -7 5 -21 7 -30 3 -10 5 -18
6 -18 1 0 4 -13 6 -30 3 -16 7 -37 11 -45 3 -8 8 -26 10 -40 2 -14 6 -32 10
-40 3 -8 8 -24 9 -35 2 -11 8 -40 13 -65 6 -25 13 -63 17 -85 4 -22 8 -44 10
-50 1 -5 5 -30 8 -55 4 -25 9 -56 11 -70 3 -14 8 -52 11 -85 3 -33 7 -78 9
-100 22 -222 22 -668 0 -806 -2 -13 -6 -51 -10 -84 -8 -77 -13 -111 -31 -215
-22 -131 -23 -137 -55 -270 -17 -69 -32 -132 -34 -140 -2 -8 -4 -16 -5 -17 -2
-2 -4 -7 -5 -13 -1 -5 -4 -12 -5 -15 -1 -3 -4 -9 -5 -15 -1 -5 -3 -11 -5 -12
-2 -3 -6 -18 -14 -57 -5 -22 -28 -90 -46 -136 -4 -11 -22 -58 -40 -105 -44
-116 -150 -351 -168 -372 -8 -10 -11 -18 -6 -18 5 0 5 -4 -1 -8 -5 -4 -19 -25
-31 -47 -47 -91 -88 -160 -95 -163 -5 -2 -9 -8 -9 -14 0 -22 -274 -411 -334
-474 -6 -6 -36 -40 -66 -75 -52 -60 -295 -305 -356 -360 -26 -22 -183 -151
-209 -172 -46 -35 -86 -64 -105 -77 -13 -8 -35 -25 -50 -37 -15 -13 -33 -23
-39 -23 -6 0 -11 -4 -11 -8 0 -5 -16 -17 -35 -28 -19 -10 -35 -22 -35 -26 0
-5 -6 -8 -12 -8 -7 0 -44 -20 -81 -45 -38 -25 -70 -45 -72 -45 -2 0 -28 -14
-57 -31 -62 -37 -345 -180 -362 -183 -6 -1 -24 -9 -41 -17 -16 -9 -59 -26 -95
-39 -36 -13 -68 -29 -72 -34 -4 -6 -8 -7 -8 -2 0 5 -6 4 -12 -2 -7 -6 -15 -10
-18 -10 -3 1 -70 -21 -150 -47 -80 -26 -152 -48 -160 -50 -8 -2 -42 -10 -75
-19 -33 -9 -69 -19 -80 -21 -11 -2 -31 -6 -45 -10 -14 -4 -35 -8 -47 -10 -11
-2 -29 -6 -40 -9 -10 -3 -36 -8 -58 -12 -47 -7 -70 -12 -70 -14 0 -1 -18 -3
-40 -5 -22 -2 -50 -6 -63 -9 -22 -5 -100 -14 -182 -22 -251 -23 -605 -23 -800
1 -25 3 -65 7 -90 10 -42 4 -64 7 -142 21 -18 3 -46 7 -63 9 -16 2 -64 11
-105 21 -41 9 -84 18 -95 19 -97 15 -522 152 -650 210 -16 8 -52 24 -80 36
-93 40 -220 104 -324 161 -57 32 -107 58 -112 58 -5 0 -9 4 -9 8 0 5 -11 14
-25 20 -34 16 -169 105 -173 114 -2 5 -9 8 -16 8 -7 0 -21 8 -32 18 -10 10
-35 28 -54 42 -179 123 -530 443 -681 619 -29 35 -59 69 -64 75 -6 6 -28 33
-50 61 -22 27 -44 54 -48 60 -32 40 -128 174 -175 245 -31 47 -61 88 -65 91
-5 3 -7 8 -6 10 3 4 -7 21 -58 101 -12 21 -23 42 -23 47 0 5 -6 16 -13 23 -6
7 -23 36 -37 63 -14 28 -29 53 -33 56 -5 3 -8 9 -8 13 1 3 -13 34 -30 68 -30
63 -113 248 -115 258 0 3 -6 19 -13 35 -7 17 -14 35 -15 40 -2 6 -6 17 -9 25
-11 25 -25 65 -25 70 0 3 -7 23 -15 45 -8 22 -18 49 -23 60 -4 11 -9 29 -11
40 -2 11 -9 36 -15 55 -7 19 -13 38 -14 43 -1 4 -2 8 -4 10 -1 1 -3 10 -5 20
-2 10 -7 26 -11 35 -3 9 -8 26 -9 37 -1 11 -12 61 -23 110 -12 50 -23 104 -26
120 -16 83 -35 206 -41 255 -4 30 -8 66 -10 80 -23 152 -23 690 -1 805 2 11 7
47 10 80 4 33 9 71 11 85 8 59 18 116 22 135 2 11 6 31 8 45 2 14 7 36 10 50
3 14 7 36 10 50 9 46 23 104 25 108 3 2 3 5 14 52 8 38 16 65 43 150 19 62 24
79 25 98 1 6 4 12 8 12 4 0 7 6 7 13 0 21 77 222 88 229 5 4 7 8 3 8 -14 0
115 277 210 452 79 144 285 458 317 480 6 5 6 8 0 8 -6 0 -5 3 1 8 6 4 44 48
83 97 40 50 77 92 82 93 5 2 9 8 9 12 0 23 241 265 443 446 95 84 395 304 416
304 6 0 11 5 11 10 0 6 10 15 23 21 12 5 38 20 58 32 86 52 219 127 226 127 3
0 14 6 22 13 9 7 50 28 91 47 41 18 77 37 78 42 2 4 9 8 17 8 7 0 39 12 71 27
33 14 64 27 69 29 6 1 24 8 40 15 17 7 32 13 35 14 3 1 12 5 20 8 25 12 312
107 334 112 12 2 68 16 126 30 107 27 119 30 180 41 19 4 43 11 53 16 11 6 17
5 17 -2 0 -6 5 -8 13 -3 13 8 22 10 74 17 18 3 48 8 65 11 32 5 94 13 173 21
22 2 83 6 135 9 52 3 95 7 96 8 5 5 374 -1 464 -7z"/>
<path d="M4955 7972 c-1 -2 -29 -5 -61 -8 -82 -6 -111 -10 -174 -22 -30 -7
-66 -13 -80 -15 -14 -2 -32 -7 -40 -10 -13 -5 -119 -36 -145 -42 -12 -2 -20
-6 -135 -52 -47 -19 -87 -38 -90 -42 -5 -7 -39 -23 -52 -25 -4 -1 -13 -7 -19
-13 -7 -7 -17 -13 -23 -13 -5 0 -24 -11 -42 -25 -18 -14 -36 -25 -39 -25 -4 0
-12 -6 -19 -12 -8 -7 -24 -20 -37 -28 -68 -44 -212 -179 -284 -265 -22 -27
-47 -56 -55 -64 -25 -27 -135 -193 -170 -256 -18 -33 -40 -70 -48 -82 -8 -13
-10 -23 -6 -23 5 0 4 -4 -1 -8 -6 -4 -21 -32 -35 -62 -14 -30 -27 -57 -30 -60
-3 -3 -6 -9 -7 -15 -1 -5 -21 -62 -46 -125 -24 -63 -58 -167 -76 -230 -17 -63
-36 -131 -42 -150 -6 -19 -12 -48 -14 -65 -2 -16 -5 -32 -6 -35 -1 -3 -3 -9
-4 -15 -2 -5 -4 -12 -5 -15 -5 -13 -20 -101 -25 -140 -1 -14 -4 -25 -5 -25 -1
0 -4 -13 -5 -30 -2 -16 -4 -30 -5 -30 -1 0 -4 -13 -5 -30 -2 -16 -6 -50 -9
-75 -11 -79 -16 -117 -22 -192 -3 -40 -8 -86 -10 -103 -3 -16 -4 -37 -4 -45 0
-8 -1 -26 -2 -40 -1 -14 -1 -171 -1 -350 1 -301 5 -434 18 -535 3 -22 8 -65
11 -95 9 -91 30 -235 34 -235 1 0 3 -18 6 -40 5 -43 11 -80 14 -80 1 0 3 -11
5 -25 9 -75 87 -364 126 -470 12 -30 22 -59 23 -65 1 -5 7 -20 14 -32 7 -12
13 -30 15 -40 2 -10 19 -49 37 -88 19 -38 34 -72 34 -75 2 -9 69 -135 92 -172
13 -21 24 -42 24 -47 0 -5 3 -11 8 -13 11 -5 52 -66 52 -78 0 -5 5 -10 10 -10
6 0 10 -7 10 -15 0 -8 4 -15 9 -15 5 0 17 -13 28 -29 26 -41 87 -111 168 -192
69 -70 248 -212 289 -230 12 -5 35 -18 51 -29 26 -17 89 -51 105 -55 3 -1 25
-11 50 -23 46 -21 153 -64 157 -63 3 1 11 -2 82 -23 29 -9 57 -13 62 -10 5 3
9 1 9 -5 0 -5 8 -8 18 -6 9 1 22 0 27 -4 6 -3 17 -7 25 -8 16 -3 82 -13 115
-18 11 -1 20 -3 20 -4 0 -6 166 -13 285 -13 165 -1 228 3 258 14 17 6 21 5 16
-4 -4 -6 -3 -8 3 -5 6 4 31 10 54 13 24 3 55 8 69 11 14 2 34 5 45 6 11 2 26
6 33 10 6 5 17 5 22 2 6 -3 10 -2 10 2 0 5 8 9 18 9 31 2 86 15 92 22 3 4 16
9 30 10 14 2 39 10 55 17 17 7 50 20 75 30 60 22 247 121 287 151 17 13 36 24
41 24 6 0 13 7 16 16 4 9 9 14 12 11 3 -3 13 2 23 11 9 10 39 35 66 57 53 43
185 175 185 184 0 3 18 26 40 51 22 25 44 50 48 55 17 22 121 182 142 220 31
54 84 159 85 165 0 3 10 25 21 50 43 92 54 118 54 132 0 8 5 19 10 24 6 6 12
19 15 30 2 10 16 53 30 94 15 41 28 82 30 90 2 8 14 56 28 105 13 50 25 93 26
98 0 4 1 8 2 10 1 2 2 10 13 57 3 14 7 35 10 46 2 12 7 39 10 60 4 22 10 62
16 89 16 85 32 208 34 258 0 15 3 27 6 27 3 0 6 26 7 58 3 97 11 181 17 191 4
5 2 12 -4 16 -6 4 -7 13 -1 23 9 18 6 632 -4 742 -3 36 -6 84 -7 108 -1 23 -5
42 -8 42 -3 0 -6 19 -6 43 -1 23 -5 62 -8 87 -4 25 -8 61 -10 80 -2 19 -5 37
-6 40 -1 3 -2 9 -1 13 1 5 -3 25 -8 45 -5 20 -12 53 -15 72 -2 19 -7 46 -10
60 -3 14 -11 50 -18 80 -6 30 -12 57 -13 60 -1 3 -5 19 -9 35 -35 148 -137
446 -186 545 -87 177 -192 356 -237 404 -13 14 -23 29 -23 33 0 8 -43 56 -134
153 -59 63 -164 155 -228 198 -29 20 -55 40 -58 43 -3 3 -12 9 -20 12 -8 4
-31 17 -50 29 -86 52 -283 139 -350 153 -8 2 -16 4 -17 5 -2 2 -6 3 -10 4 -5
1 -14 5 -20 9 -7 5 -13 6 -13 3 0 -2 -15 0 -32 5 -18 6 -46 12 -63 15 -16 3
-37 7 -45 10 -19 7 -107 19 -215 30 -64 6 -375 11 -380 6z m339 -1101 c25 -11
46 -24 46 -28 0 -5 10 -19 23 -33 80 -89 82 -229 5 -370 -17 -30 -40 -73 -52
-95 -11 -22 -25 -43 -31 -47 -5 -4 -6 -8 -1 -8 5 0 4 -6 -2 -12 -5 -7 -33 -58
-63 -113 -29 -55 -55 -102 -58 -105 -3 -3 -25 -41 -47 -85 -23 -44 -67 -126
-98 -182 -31 -56 -56 -107 -56 -113 0 -5 -4 -10 -9 -10 -5 0 -13 -10 -17 -22
-3 -13 -12 -30 -19 -38 -8 -8 -14 -19 -14 -23 0 -4 -14 -34 -32 -65 -18 -31
-33 -59 -34 -62 0 -3 -5 -12 -10 -20 -5 -8 -19 -33 -30 -55 -42 -78 -98 -180
-115 -210 -10 -16 -37 -66 -60 -110 -43 -80 -64 -118 -136 -250 -21 -38 -45
-83 -53 -100 -9 -16 -20 -33 -26 -37 -5 -4 -7 -8 -2 -8 4 0 -1 -12 -10 -27
-19 -29 -48 -81 -83 -150 -26 -50 -40 -55 -41 -15 -1 15 -2 38 -4 52 -15 122
-26 357 -26 580 -1 237 14 551 27 571 3 5 0 9 -7 9 -8 0 -8 4 -1 13 5 6 12 39
16 72 5 51 15 119 31 210 6 33 13 68 25 120 6 28 13 58 15 69 3 10 9 24 16 32
6 8 8 14 4 14 -4 0 -2 7 5 15 7 8 10 15 7 15 -3 0 2 24 12 53 113 323 337 544
591 582 25 4 47 8 48 10 2 2 52 2 112 0 81 -2 119 -8 154 -24z m647 -926 c2
-16 5 -33 8 -37 1 -2 4 -16 5 -33 2 -16 7 -57 11 -90 11 -91 21 -204 29 -347
2 -37 7 -71 10 -77 4 -5 2 -12 -4 -16 -6 -4 -8 -10 -5 -15 16 -27 2 -609 -19
-795 -2 -16 -6 -55 -10 -85 -3 -30 -8 -64 -10 -75 -2 -11 -7 -40 -11 -65 -4
-25 -9 -54 -11 -65 -2 -11 -7 -33 -10 -50 -34 -189 -144 -452 -241 -576 -38
-50 -155 -158 -189 -175 -20 -11 -50 -27 -68 -36 -31 -17 -97 -40 -126 -44 -8
-1 -33 -6 -55 -11 -33 -8 -166 -9 -245 -2 -37 3 -158 43 -202 67 -58 31 -155
122 -131 122 4 0 2 4 -5 8 -7 5 -14 26 -17 48 -2 21 -5 41 -6 44 -5 16 -3 39
8 73 7 20 10 37 8 37 -7 0 108 205 174 310 8 14 26 44 38 67 12 23 36 63 52
90 17 26 44 75 62 108 17 33 34 62 38 65 3 3 13 19 22 35 28 54 44 80 52 86 5
3 8 9 8 13 -1 3 5 16 13 29 49 79 126 218 126 226 0 6 4 11 9 11 5 0 14 15 22
33 7 17 15 34 18 37 10 9 42 64 48 83 3 9 9 17 14 17 5 0 9 5 9 11 0 5 25 52
55 104 31 52 55 97 55 101 -1 4 2 10 7 13 11 7 98 154 126 211 6 14 14 27 18
30 3 3 25 41 50 84 24 43 51 91 59 105 8 14 31 53 50 86 19 33 40 69 47 80 7
11 15 27 19 35 4 8 10 17 13 20 3 3 20 31 36 62 30 58 44 71 46 43z"/>
</g>
</svg>
